#!OML:ASF F:\VICON\USERDATA\INSTALL\rory3\rory3.ASF
:FULLY-SPECIFIED
:DEGREES
338
root -7.18317 20.2071 4.16639 204.38 113.147 216.594
lowerback -15.4307 -5.83058 -11.4205
upperback -5.00747 -5.40628 -4.56677
thorax 3.84082 -2.54129 0.502688
lowerneck 0.823049 -13.7947 -12.157
upperneck 37.771 -17.8934 -1.93496
head 13.7819 -9.51893 -0.787372
rclavicle -1.92821e-014 2.70347e-014
rhumerus -74.1081 -58.5968 66.1123
rradius 13.5594
rwrist 109.085
rhand 30.0272 -7.98173
rfingers 7.12502
rthumb 53.7314 -26.9997
lclavicle -1.92821e-014 2.70347e-014
lhumerus -193.487 -162.093 177.085
lradius 16.9887
lwrist -48.1927
lhand 10.2935 32.7436
lfingers 7.12502
lthumb 35.4046 59.2042
rfemur 171.682 -217.557 -221.595
rtibia 14.4386
rfoot -88.6236 16.2186
rtoes 62.7305
lfemur 11.5645 -3.76642 23.8596
ltibia 61.8937
lfoot 53.976 25.5092
ltoes -3.68759
339
root -7.19634 20.1695 4.44244 202.986 114.165 215.495
lowerback -15.8355 -6.00204 -12.4597
upperback -4.86296 -5.3911 -4.43572
thorax 4.30674 -2.55334 1.1558
lowerneck 0.429676 -13.3741 -11.9383
upperneck 38.0957 -17.2539 -1.94561
head 13.9396 -9.20679 -0.778464
rclavicle -7.95139e-015 7.196e-014
rhumerus -77.5408 -58.8353 68.9559
rradius 13.5886
rwrist 111.153
rhand 29.4171 -7.61828
rfingers 7.12502
rthumb 53.1822 -26.9946
lclavicle -7.95139e-015 7.196e-014
lhumerus -194.699 -164.044 178.11
lradius 16.849
lwrist -48.857
lhand 9.99238 32.5042
lfingers 7.12502
lthumb 35.1191 59.0324
rfemur 172.285 -215.078 -219.014
rtibia 14.0319
rfoot -86.3643 14.2422
rtoes 62.7827
lfemur 11.3396 -5.50608 23.909
ltibia 61.3468
lfoot 53.8979 23.3537
ltoes -8.06883
340
root -7.22045 20.1148 4.72286 202.219 115.294 214.968
lowerback -16.3351 -6.01647 -13.7526
upperback -4.72456 -5.08208 -4.47186
thorax 4.78132 -2.42494 1.82682
lowerneck 0.229167 -13.1374 -11.8452
upperneck 38.4381 -16.9632 -1.76459
head 14.131 -9.04167 -0.715705
rclavicle 9.93923e-015 4.73108e-014
rhumerus -76.9241 -57.523 67.0631
rradius 13.4898
rwrist 110.176
rhand 29.1461 -7.99214
rfingers 7.12502
rthumb 52.9376 -27.5239
lclavicle 9.93923e-015 4.73108e-014
lhumerus -195.184 -165.999 179.197
lradius 16.7503
lwrist -49.4897
lhand 9.5601 32.49
lfingers 7.12502
lthumb 34.709 59.1135
rfemur 172.613 -212.191 -216.735
rtibia 13.8375
rfoot -84.3752 9.93183
rtoes 62.7875
lfemur 10.9188 -6.96286 23.6505
ltibia 60.8406
lfoot 50.1789 29.851
ltoes 4.21361
341
root -7.25334 20.0606 4.95393 200.198 116.092 213.239
lowerback -16.2485 -5.80903 -13.7844
upperback -4.58795 -4.81144 -4.55795
thorax 4.84273 -2.30488 1.81523
lowerneck -0.122634 -12.9248 -11.6503
upperneck 38.8016 -16.7195 -1.55725
head 14.358 -8.87772 -0.675417
rclavicle 4.65156e-014 -3.65764e-014
rhumerus -81.0842 -57.0712 70.5155
rradius 13.6326
rwrist 112.017
rhand 28.5423 -7.31218
rfingers 7.12502
rthumb 52.3917 -27.1822
lclavicle 4.65156e-014 -3.65764e-014
lhumerus -195.517 -168.504 180.119
lradius 16.6083
lwrist -50.9279
lhand 9.37558 32.1369
lfingers 7.12502
lthumb 34.5339 58.8006
rfemur 173.223 -206.699 -213.442
rtibia 13.515
rfoot -80.9158 3.36137
rtoes 62.8088
lfemur 10.273 -8.03277 24.164
ltibia 60.5919
lfoot 48.0627 32.7167
ltoes 9.39577
342
root -7.28169 19.9741 5.22626 198.782 116.648 212.126
lowerback -16.4728 -6.02035 -14.5882
upperback -4.35667 -4.88344 -4.54989
thorax 5.284 -2.37363 2.20155
lowerneck -0.49971 -12.5845 -11.1938
upperneck 39.16 -16.308 -1.37921
head 14.5414 -8.60948 -0.654482
rclavicle -3.22031e-014 -2.38542e-014
rhumerus -85.8297 -56.8898 74.5242
rradius 13.6667
rwrist 114.119
rhand 27.4144 -6.42985
rfingers 7.12502
rthumb 51.3681 -26.9035
lclavicle -3.22031e-014 -2.38542e-014
lhumerus -196.241 -169.306 181.129
lradius 16.6444
lwrist -51.0722
lhand 9.40572 32.041
lfingers 7.12502
lthumb 34.5625 58.6981
rfemur 174.186 -201.301 -210.143
rtibia 13.2429
rfoot -77.6294 -3.19303
rtoes 62.7863
lfemur 9.18436 -8.83996 24.8489
ltibia 60.3739
lfoot 45.7972 35.9844
ltoes 15.091
343
root -7.34016 19.8773 5.43566 197.404 117.896 211.373
lowerback -15.5925 -5.85934 -15.0504
upperback -4.30156 -4.77081 -4.6884
thorax 4.87341 -2.30917 2.39239
lowerneck -1.04651 -12.211 -11.0847
upperneck 39.4824 -15.8802 -0.957474
head 14.8193 -8.34843 -0.500335
rclavicle -5.36719e-014 -5.60573e-014
rhumerus -90.7231 -56.7781 78.7492
rradius 13.7087
rwrist 116.27
rhand 26.691 -5.7202
rfingers 7.12502
rthumb 50.709 -26.5625
lclavicle -5.36719e-014 -5.60573e-014
lhumerus -197.149 -169.552 182.399
lradius 16.9017
lwrist -50.6289
lhand 9.3486 32.2566
lfingers 7.12502
lthumb 34.5082 58.9261
rfemur 174.51 -195.102 -207.499
rtibia 13.2322
rfoot -73.576 -11.6622
rtoes 62.6719
lfemur 8.64016 -9.24819 24.7551
ltibia 60.2908
lfoot 41.6724 40.8164
ltoes 20.2141
344
root -7.39023 19.7729 5.64242 196.015 118.986 210.588
lowerback -14.8947 -5.73977 -15.4076
upperback -4.04855 -4.68527 -4.76823
thorax 4.77767 -2.28294 2.55589
lowerneck -1.87001 -11.8949 -10.7583
upperneck 39.4889 -15.485 -0.687631
head 14.9591 -8.09281 -0.44356
rclavicle -3.27995e-014 -4.11484e-014
rhumerus -98.1844 -56.6744 85.8086
rradius 13.872
rwrist 119.649
rhand 26.2209 -5.17688
rfingers 7.12502
rthumb 50.2796 -26.2516
lclavicle -3.27995e-014 -4.11484e-014
lhumerus -197.853 -171.322 183.473
lradius 16.8426
lwrist -50.9416
lhand 7.96009 31.7845
lfingers 7.12502
lthumb 33.1891 58.7446
rfemur 174.744 -188.574 -204.689
rtibia 13.8622
rfoot -68.6145 -20.981
rtoes 62.3273
lfemur 7.98293 -9.63314 24.5698
ltibia 60.1875
lfoot 33.2389 46.3332
ltoes 30.1868
345
root -7.43869 19.6551 5.84782 195.341 120.085 210.645
lowerback -14.1825 -5.69277 -16.292
upperback -3.71625 -4.60576 -4.89329
thorax 4.79148 -2.27027 2.94185
lowerneck -2.79651 -11.6783 -10.2739
upperneck 39.4213 -15.1906 -0.616291
head 15.0526 -7.88329 -0.506732
rclavicle -3.23025e-014 8.20981e-014
rhumerus -101.723 -56.3868 88.3976
rradius 13.6465
rwrist 120.339
rhand 26.1343 -5.0781
rfingers 7.12502
rthumb 50.2005 -26.1949
lclavicle -3.23025e-014 8.20981e-014
lhumerus -198.54 -171.081 185.096
lradius 17.2893
lwrist -50.0806
lhand 8.13345 32.3104
lfingers 7.12502
lthumb 33.3539 59.2353
rfemur 174.781 -181.944 -202.432
rtibia 15.1739
rfoot -61.5162 -32.2128
rtoes 61.5696
lfemur 7.17787 -9.77753 23.9288
ltibia 60.0024
lfoot 26.8338 48.955
ltoes 33.6926
346
root -7.49611 19.5111 6.06496 193.668 121.354 209.392
lowerback -13.4034 -5.4118 -16.4445
upperback -3.62768 -4.38081 -5.03789
thorax 4.42191 -2.1496 2.97016
lowerneck -3.2644 -11.5017 -10.1324
upperneck 39.4228 -15.1312 -0.0741529
head 15.1925 -7.76911 -0.337089
rclavicle 1.0138e-013 5.2181e-014
rhumerus -102.872 -55.6026 88.2862
rradius 13.405
rwrist 119.858
rhand 26.3752 -5.03327
rfingers 7.12502
rthumb 50.4206 -26.0323
lclavicle 1.0138e-013 5.2181e-014
lhumerus -198.49 -174.303 185.524
lradius 16.7975
lwrist -52.4724
lhand 8.61932 31.482
lfingers 7.12502
lthumb 33.8157 58.3065
rfemur 174.171 -177.52 -199.454
rtibia 17.2572
rfoot -53.2954 -41.495
rtoes 60.4981
lfemur 6.4031 -9.04082 24.4578
ltibia 59.6289
lfoot 17.885 51.5215
ltoes 38.9774
347
root -7.55377 19.343 6.30334 189.485 122.747 205.19
lowerback -12.7386 -4.88351 -15.0701
upperback -3.50718 -4.05368 -4.78962
thorax 4.06816 -1.98582 2.6192
lowerneck -3.72197 -11.2676 -10.0044
upperneck 39.3033 -15.0518 0.659283
head 15.2911 -7.62606 -0.0767943
rclavicle 1.00014e-014 -2.76559e-014
rhumerus -106.305 -54.5356 90.7791
rradius 13.4103
rwrist 120.859
rhand 26.5202 -4.9467
rfingers 7.12502
rthumb 50.5531 -25.8741
lclavicle 1.00014e-014 -2.76559e-014
lhumerus -198.359 -176.569 186.047
lradius 16.4663
lwrist -53.7631
lhand 7.70763 30.6947
lfingers 7.12502
lthumb 32.949 57.7057
rfemur 173.187 -175.216 -194.481
rtibia 19.9153
rfoot -43.6935 -48.2042
rtoes 59.3001
lfemur 6.05112 -7.56135 27.2983
ltibia 58.9688
lfoot 16.6495 50.9028
ltoes 40.3728
348
root -7.61114 19.1675 6.54224 188.994 124.344 204.868
lowerback -12.5015 -4.73402 -15.8
upperback -3.41873 -3.78986 -4.99198
thorax 4.01873 -1.86063 2.85232
lowerneck -4.21109 -11.0195 -9.57209
upperneck 38.9377 -14.9259 1.21542
head 15.2125 -7.44929 0.0828978
rclavicle 4.54968e-014 1.77912e-014
rhumerus -112.521 -52.9092 96.606
rradius 13.7314
rwrist 123.821
rhand 26.1075 -4.23149
rfingers 7.12502
rthumb 50.1759 -25.3613
lclavicle 4.54968e-014 1.77912e-014
lhumerus -198.255 -176.53 187.076
lradius 16.3138
lwrist -52.709
lhand 7.37979 30.655
lfingers 7.12502
lthumb 32.6371 57.7311
rfemur 172.022 -172.332 -191.87
rtibia 22.7004
rfoot -29.3007 -53.4553
rtoes 57.4997
lfemur 5.17552 -6.01594 27.4272
ltibia 58.4461
lfoot 9.06257 51.7197
ltoes 44.2597
349
root -7.67305 18.9572 6.77133 187.633 126.038 203.805
lowerback -11.7615 -4.39505 -15.9896
upperback -3.33314 -3.47433 -5.1274
thorax 3.65187 -1.69422 2.90936
lowerneck -4.67839 -10.8317 -9.08265
upperneck 38.5268 -14.858 1.64566
head 15.0932 -7.30788 0.174503
rclavicle 4.98453e-014 -6.0033e-014
rhumerus -115.947 -51.4826 99.2691
rradius 13.8317
rwrist 124.897
rhand 26.0036 -4.49303
rfingers 7.12502
rthumb 50.0809 -25.6732
lclavicle 4.98453e-014 -6.0033e-014
lhumerus -197.946 -176.788 188.013
lradius 16.1663
lwrist -52.1762
lhand 7.25837 30.6676
lfingers 7.12502
lthumb 32.5216 57.7675
rfemur 170.991 -170.062 -188.8
rtibia 25.524
rfoot -11.9169 -55.4425
rtoes 55.023
lfemur 4.50432 -4.4659 28.0659
ltibia 57.951
lfoot -0.0402506 51.9215
ltoes 47.523
350
root -7.72057 18.7477 6.94526 187.599 127.701 203.987
lowerback -11.2093 -4.03339 -16.0786
upperback -3.24308 -3.07559 -5.62497
thorax 3.35478 -1.48475 2.52217
lowerneck -5.43523 -10.6619 -8.62829
upperneck 38.1884 -14.8318 2.17262
head 15.0957 -7.16568 0.279744
rclavicle 6.40087e-014 5.86415e-014
rhumerus -117.946 -50.4099 100.184
rradius 13.713
rwrist 124.617
rhand 26.2722 -5.03102
rfingers 7.12502
rthumb 50.3265 -26.0806
lclavicle 6.40087e-014 5.86415e-014
lhumerus -197.239 -177.662 188.993
lradius 16.0525
lwrist -52.1388
lhand 7.19392 30.8662
lfingers 7.12502
lthumb 32.4603 57.9787
rfemur 169.83 -166.568 -186.82
rtibia 28.1806
rfoot 16.6683 -51.583
rtoes 47.8766
lfemur 3.4341 -3.33539 27.1876
ltibia 57.6833
lfoot -3.76133 50.8419
ltoes 48.6261
351
root -7.7677 18.5222 7.14392 186.986 129.533 203.318
lowerback -10.8005 -3.59305 -15.9543
upperback -3.22244 -2.59499 -5.87525
thorax 3.0565 -1.23471 2.28817
lowerneck -6.42365 -10.5006 -8.50484
upperneck 38.0502 -14.8413 2.9174
head 15.3182 -7.04068 0.496811
rclavicle 5.43676e-014 4.29375e-014
rhumerus -119.613 -49.4071 100.925
rradius 13.6212
rwrist 124.41
rhand 26.2923 -5.30862
rfingers 7.12502
rthumb 50.3449 -26.3484
lclavicle 5.43676e-014 4.29375e-014
lhumerus -196.419 -177.955 190.068
lradius 16.1085
lwrist -51.5761
lhand 6.82065 30.6114
lfingers 7.12502
lthumb 32.105 57.7963
rfemur 168.813 -163.973 -184.057
rtibia 30.4578
rfoot 12.091 -46.098
rtoes 36.0524
lfemur 2.59748 -2.07729 26.9708
ltibia 57.207
lfoot -1.00194 49.7116
ltoes 47.5106
352
root -7.80429 18.271 7.33694 186.787 131.218 202.871
lowerback -10.3911 -3.56434 -16.0457
upperback -3.66242 -2.68364 -6.12879
thorax 2.356 -1.21578 2.08696
lowerneck -6.44169 -10.019 -7.96044
upperneck 37.7414 -14.3979 3.40401
head 15.1226 -6.733 0.692691
rclavicle -1.22054e-013 -9.93923e-015
rhumerus -119.838 -49.4353 99.7826
rradius 13.5626
rwrist 124.228
rhand 26.1265 -5.42728
rfingers 7.12502
rthumb 50.1933 -26.5479
lclavicle -1.22054e-013 -9.93923e-015
lhumerus -196.509 -177.726 190.392
lradius 16.1597
lwrist -51.1964
lhand 5.8496 29.7915
lfingers 7.12502
lthumb 31.18 57.1585
rfemur 168.069 -161.416 -181.407
rtibia 32.3707
rfoot 5.24901 -40.4452
rtoes 37.3508
lfemur 1.59989 -1.08828 26.553
ltibia 56.6395
lfoot -8.92706 48.0768
ltoes 49.1956
